<svg xmlns="http://www.w3.org/2000/svg" width="512" height="512" class="hovered-paths" viewBox="0 0 464 464"><g><g><g><g fill="#7ed63e"><path fill="#E55529" d="m256 24c0 13.253906-10.746094 24-24 24s-24-10.746094-24-24 10.746094-24 24-24 24 10.746094 24 24zm0 0" data-old_color="#6F39C4" data-original="#E55529"/><path fill="#E55529" d="m248 56h-32c-17.671875 0-32 14.328125-32 32v16h96v-16c0-17.671875-14.328125-32-32-32zm0 0" data-old_color="#6F39C4" data-original="#E55529"/><path fill="#E55529" d="m440 104c0 13.253906-10.746094 24-24 24s-24-10.746094-24-24 10.746094-24 24-24 24 10.746094 24 24zm0 0" data-old_color="#6F39C4" data-original="#E55529"/><path fill="#E55529" d="m432 136h-32c-17.671875 0-32 14.328125-32 32v16h96v-16c0-17.671875-14.328125-32-32-32zm0 0" data-old_color="#6F39C4" data-original="#E55529"/><path fill="#E55529" d="m256 384c0 13.253906-10.746094 24-24 24s-24-10.746094-24-24 10.746094-24 24-24 24 10.746094 24 24zm0 0" data-old_color="#6F39C4" data-original="#E55529"/><path fill="#E55529" d="m248 416h-32c-17.671875 0-32 14.328125-32 32v16h96v-16c0-17.671875-14.328125-32-32-32zm0 0" data-old_color="#6F39C4" data-original="#E55529"/><path fill="#E55529" d="m424 296c0 13.253906-10.746094 24-24 24s-24-10.746094-24-24 10.746094-24 24-24 24 10.746094 24 24zm0 0" data-old_color="#6F39C4" data-original="#E55529"/><path fill="#E55529" d="m416 328h-32c-17.671875 0-32 14.328125-32 32v16h96v-16c0-17.671875-14.328125-32-32-32zm0 0" data-old_color="#6F39C4" data-original="#E55529"/><path fill="#E55529" d="m72 104c0 13.253906-10.746094 24-24 24s-24-10.746094-24-24 10.746094-24 24-24 24 10.746094 24 24zm0 0" data-old_color="#6F39C4" data-original="#E55529"/><path fill="#E55529" d="m64 136h-32c-17.671875 0-32 14.328125-32 32v16h96v-16c0-17.671875-14.328125-32-32-32zm0 0" data-old_color="#6F39C4" data-original="#E55529"/><path fill="#E55529" d="m88 296c0 13.253906-10.746094 24-24 24s-24-10.746094-24-24 10.746094-24 24-24 24 10.746094 24 24zm0 0" data-old_color="#6F39C4" data-original="#E55529"/><path fill="#E55529" d="m80 328h-32c-17.671875 0-32 14.328125-32 32v16h96v-16c0-17.671875-14.328125-32-32-32zm0 0" data-old_color="#6F39C4" data-original="#E55529"/></g><path fill="#4FD9B3" d="m328 232c0 53.019531-42.980469 96-96 96s-96-42.980469-96-96 42.980469-96 96-96 96 42.980469 96 96zm0 0" data-old_color="#ffcd00" data-original="#4FD9B3"/><path fill="#094492" d="m256 200c0 13.253906-10.746094 24-24 24s-24-10.746094-24-24 10.746094-24 24-24 24 10.746094 24 24zm0 0" data-old_color="#d80027" data-original="#094492"/><path fill="#094492" d="m248 232h-32c-17.671875 0-32 14.328125-32 32v16h96v-16c0-17.671875-14.328125-32-32-32zm0 0" data-old_color="#d80027" data-original="#094492"/><path fill="#B4421F" d="m208 80h8v24h-16v-16c0-4.417969 3.582031-8 8-8zm0 0" data-old_color="#71c138" data-original="#B4421F"/><path fill="#B4421F" d="m248 80h8c4.417969 0 8 3.582031 8 8v16h-16zm0 0" data-old_color="#71c138" data-original="#B4421F"/><path fill="#B4421F" d="m208 440h8v24h-16v-16c0-4.417969 3.582031-8 8-8zm0 0" data-old_color="#71c138" data-original="#B4421F"/><path fill="#B4421F" d="m248 440h8c4.417969 0 8 3.582031 8 8v16h-16zm0 0" data-old_color="#71c138" data-original="#B4421F"/><path fill="#B4421F" d="m376 352h8v24h-16v-16c0-4.417969 3.582031-8 8-8zm0 0" data-old_color="#71c138" data-original="#B4421F"/><path fill="#B4421F" d="m416 352h8c4.417969 0 8 3.582031 8 8v16h-16zm0 0" data-old_color="#71c138" data-original="#B4421F"/><path fill="#B4421F" d="m392 160h8v24h-16v-16c0-4.417969 3.582031-8 8-8zm0 0" data-old_color="#71c138" data-original="#B4421F"/><path fill="#B4421F" d="m432 160h8c4.417969 0 8 3.582031 8 8v16h-16zm0 0" data-old_color="#71c138" data-original="#B4421F"/><path fill="#B4421F" d="m24 160h8v24h-16v-16c0-4.417969 3.582031-8 8-8zm0 0" data-old_color="#71c138" data-original="#B4421F"/><path fill="#B4421F" d="m64 160h8c4.417969 0 8 3.582031 8 8v16h-16zm0 0" data-old_color="#71c138" data-original="#B4421F"/><path fill="#B4421F" d="m40 352h8v24h-16v-16c0-4.417969 3.582031-8 8-8zm0 0" data-old_color="#71c138" data-original="#B4421F"/><path fill="#B4421F" d="m80 352h8c4.417969 0 8 3.582031 8 8v16h-16zm0 0" data-old_color="#71c138" data-original="#B4421F"/><path fill="#06316A" d="m208 256h8v24h-16v-16c0-4.417969 3.582031-8 8-8zm0 0" class="active-path" data-old_color="#c20023" data-original="#06316A"/><path fill="#06316A" d="m248 256h8c4.417969 0 8 3.582031 8 8v16h-16zm0 0" class="active-path" data-old_color="#c20023" data-original="#06316A"/></g></g></g></svg>